<?xml version="1.0" encoding="UTF-8" standalone="no"?>
<svg width="500px" height="501px" viewBox="0 0 500 501" version="1.1" xmlns="http://www.w3.org/2000/svg" xmlns:xlink="http://www.w3.org/1999/xlink">
    <!-- Generator: Sketch 40 (33762) - http://www.bohemiancoding.com/sketch -->
    <title>facebook</title>
    <desc>Created with Sketch.</desc>
    <defs></defs>
    <g id="Page-1" stroke="none" stroke-width="1" fill="none" fill-rule="evenodd">
        <g id="facebook" fill="#B3B3B3">
            <path d="M472.404775,1 L27.5952251,1 C12.3513455,1 0,13.3513455 0,28.5952251 L0,473.404775 C0,488.644908 12.3513455,501 27.5952251,501 L267.064827,501 L267.064827,307.374441 L201.906,307.374441 L201.906,231.913771 L267.064827,231.913771 L267.064827,176.264337 C267.064827,111.682518 306.509326,76.5168719 364.120213,76.5168719 C391.715438,76.5168719 415.434592,78.5719949 422.345575,79.4899623 L422.345575,146.981176 L382.389638,146.99991 C351.056974,146.99991 344.990895,161.887843 344.990895,183.735468 L344.990895,231.913771 L419.715318,231.913771 L409.984863,307.374441 L344.990895,307.374441 L344.990895,501 L472.404775,501 C487.644908,501 500,488.644908 500,473.404775 L500,28.5952251 C500,13.3513455 487.644908,1 472.404775,1" id="Fill-14"></path>
        </g>
    </g>
</svg>