<?xml version="1.0" encoding="UTF-8" standalone="no"?>
<svg width="500px" height="500px" viewBox="0 0 500 500" version="1.1" xmlns="http://www.w3.org/2000/svg" xmlns:xlink="http://www.w3.org/1999/xlink">
    <!-- Generator: Sketch 40 (33762) - http://www.bohemiancoding.com/sketch -->
    <title>instagram</title>
    <desc>Created with Sketch.</desc>
    <defs></defs>
    <g id="Page-1" stroke="none" stroke-width="1" fill="none" fill-rule="evenodd">
        <g id="instagram" fill="#B3B3B3">
            <path d="M250,45.110119 C316.732143,45.110119 324.635913,45.3640873 350.989087,46.5664683 C375.356151,47.6785714 388.589286,51.75 397.396825,55.171627 C409.061508,59.7053571 417.387897,65.1220238 426.132937,73.8670635 C434.877976,82.6121032 440.294643,90.9384921 444.827381,102.603175 C448.25,111.410714 452.321429,124.643849 453.433532,149.009921 C454.635913,175.364087 454.889881,183.267857 454.889881,250 C454.889881,316.732143 454.635913,324.635913 453.433532,350.989087 C452.321429,375.356151 448.25,388.589286 444.827381,397.396825 C440.294643,409.061508 434.877976,417.387897 426.132937,426.132937 C417.387897,434.877976 409.061508,440.294643 397.396825,444.827381 C388.589286,448.25 375.356151,452.321429 350.989087,453.433532 C324.639881,454.635913 316.736111,454.889881 250,454.889881 C183.263889,454.889881 175.360119,454.635913 149.010913,453.433532 C124.643849,452.321429 111.410714,448.25 102.604167,444.827381 C90.9384921,440.294643 82.6121032,434.877976 73.8670635,426.132937 C65.1220238,417.387897 59.7053571,409.061508 55.172619,397.396825 C51.75,388.589286 47.6785714,375.356151 46.5664683,350.990079 C45.3640873,324.635913 45.110119,316.732143 45.110119,250 C45.110119,183.267857 45.3640873,175.364087 46.5664683,149.010913 C47.6785714,124.643849 51.75,111.410714 55.172619,102.603175 C59.7053571,90.9384921 65.1220238,82.6121032 73.8670635,73.8670635 C82.6121032,65.1220238 90.9384921,59.7053571 102.604167,55.171627 C111.410714,51.75 124.643849,47.6785714 149.009921,46.5664683 C175.364087,45.3640873 183.267857,45.110119 250,45.110119 M250,0.0783730159 C182.125,0.0783730159 173.615079,0.366071429 146.958333,1.58234127 C120.356151,2.79662698 102.189484,7.02083333 86.2916667,13.1994048 C69.8571429,19.5863095 55.9196429,28.1319444 42.0257937,42.0257937 C28.1319444,55.9196429 19.5863095,69.8571429 13.1994048,86.2916667 C7.02083333,102.189484 2.79662698,120.356151 1.58234127,146.958333 C0.366071429,173.614087 0.0793650794,182.125 0.0793650794,250 C0.0793650794,317.875 0.366071429,326.385913 1.58234127,353.041667 C2.79662698,379.643849 7.02083333,397.810516 13.1994048,413.708333 C19.5863095,430.141865 28.1319444,444.080357 42.0257937,457.974206 C55.9196429,471.868056 69.8571429,480.41369 86.2916667,486.800595 C102.189484,492.979167 120.356151,497.203373 146.958333,498.417659 C173.615079,499.633929 182.125,499.920635 250,499.920635 C317.875,499.920635 326.385913,499.633929 353.041667,498.417659 C379.643849,497.203373 397.810516,492.979167 413.708333,486.800595 C430.142857,480.41369 444.080357,471.868056 457.974206,457.974206 C471.868056,444.080357 480.41369,430.142857 486.800595,413.708333 C492.979167,397.810516 497.203373,379.643849 498.417659,353.041667 C499.633929,326.385913 499.921627,317.875 499.921627,250 C499.921627,182.125 499.633929,173.614087 498.417659,146.958333 C497.203373,120.356151 492.979167,102.189484 486.800595,86.2916667 C480.41369,69.8571429 471.868056,55.9196429 457.974206,42.0257937 C444.080357,28.1319444 430.142857,19.5863095 413.708333,13.1994048 C397.810516,7.02083333 379.643849,2.79662698 353.041667,1.58234127 C326.385913,0.366071429 317.875,0.0783730159 250,0.0783730159" id="Fill-1"></path>
            <path d="M250,121.661706 C179.121032,121.661706 121.661706,179.121032 121.661706,250 C121.661706,320.878968 179.121032,378.338294 250,378.338294 C320.878968,378.338294 378.338294,320.878968 378.338294,250 C378.338294,179.121032 320.878968,121.661706 250,121.661706 L250,121.661706 Z M250,333.30754 C203.991071,333.30754 166.69246,296.008929 166.69246,250 C166.69246,203.991071 203.991071,166.69246 250,166.69246 C296.008929,166.69246 333.30754,203.991071 333.30754,250 C333.30754,296.008929 296.008929,333.30754 250,333.30754 L250,333.30754 Z" id="Fill-2"></path>
            <path d="M413.39881,116.59127 C413.39881,133.154762 399.972222,146.582341 383.40873,146.582341 C366.845238,146.582341 353.417659,133.154762 353.417659,116.59127 C353.417659,100.027778 366.845238,86.6011905 383.40873,86.6011905 C399.972222,86.6011905 413.39881,100.027778 413.39881,116.59127" id="Fill-3"></path>
        </g>
    </g>
</svg>