<svg width="12" height="9" viewBox="0 0 12 9" version="2.0" xmlns="http://www.w3.org/2000/svg" xmlns:xlink="http://www.w3.org/1999/xlink" xmlns:figma="http://www.figma.com/figma/ns">
<title>menu.svg</title>
<desc>Created using Figma 0.90</desc>
<g id="Canvas" transform="translate(-6933 281)" figma:type="canvas">
<g id="Menu Icon" style="mix-blend-mode:normal;" figma:type="frame">
<g id="Line" style="mix-blend-mode:normal;" figma:type="rounded-rectangle">
<use xlink:href="#path0_fill" transform="translate(6935 -273)" fill="#333333" style="mix-blend-mode:normal;"/>
</g>
<g id="Line" style="mix-blend-mode:normal;" figma:type="rounded-rectangle">
<use xlink:href="#path1_fill" transform="translate(6937 -277)" fill="#333333" style="mix-blend-mode:normal;"/>
</g>
<g id="Line" style="mix-blend-mode:normal;" figma:type="rounded-rectangle">
<use xlink:href="#path2_fill" transform="translate(6933 -281)" fill="#333333" style="mix-blend-mode:normal;"/>
</g>
</g>
</g>
<defs>
<path id="path0_fill" d="M 0 0.5C 0 0.223858 0.223858 0 0.5 0L 9.5 0C 9.77614 0 10 0.223858 10 0.5L 10 0.5C 10 0.776142 9.77614 1 9.5 1L 0.5 1C 0.223858 1 0 0.776142 0 0.5L 0 0.5Z"/>
<path id="path1_fill" d="M 0 0.5C 0 0.223858 0.223858 0 0.5 0L 7.5 0C 7.77614 0 8 0.223858 8 0.5L 8 0.5C 8 0.776142 7.77614 1 7.5 1L 0.5 1C 0.223858 1 0 0.776142 0 0.5L 0 0.5Z"/>
<path id="path2_fill" d="M 0 0.5C 0 0.223858 0.223858 0 0.5 0L 11.5 0C 11.7761 0 12 0.223858 12 0.5L 12 0.5C 12 0.776142 11.7761 1 11.5 1L 0.5 1C 0.223858 1 0 0.776142 0 0.5L 0 0.5Z"/>
</defs>
</svg>
