<?xml version="1.0" encoding="UTF-8" standalone="no"?>
<svg width="500px" height="500px" viewBox="0 0 500 500" version="1.1" xmlns="http://www.w3.org/2000/svg" xmlns:xlink="http://www.w3.org/1999/xlink">
    <!-- Generator: Sketch 40 (33762) - http://www.bohemiancoding.com/sketch -->
    <title>twitter</title>
    <desc>Created with Sketch.</desc>
    <defs></defs>
    <g id="Page-1" stroke="none" stroke-width="1" fill="none" fill-rule="evenodd">
        <g id="twitter" fill="#B3B3B3">
            <path d="M157.246,453.356 C345.934,453.356 449.118,297.034 449.118,161.484 C449.118,157.042 449.028,152.62 448.824,148.222 C468.852,133.744 486.264,115.678 500,95.108 C481.618,103.272 461.838,108.776 441.088,111.256 C462.268,98.56 478.528,78.464 486.196,54.512 C466.372,66.262 444.426,74.808 421.06,79.41 C402.342,59.472 375.682,47 346.182,47 C289.526,47 243.584,92.942 243.584,149.576 C243.584,157.628 244.486,165.454 246.244,172.966 C160.99,168.68 85.39,127.858 34.8,65.788 C25.982,80.944 20.908,98.56 20.908,117.346 C20.908,152.938 39.018,184.356 66.556,202.736 C49.732,202.218 33.922,197.594 20.096,189.902 C20.072,190.33 20.072,190.76 20.072,191.21 C20.072,240.898 55.438,282.374 102.372,291.78 C93.758,294.124 84.69,295.388 75.33,295.388 C68.722,295.388 62.294,294.734 56.046,293.538 C69.106,334.294 106.974,363.952 151.878,364.788 C116.762,392.302 72.534,408.698 24.472,408.698 C16.194,408.698 8.03,408.226 0,407.278 C45.402,436.372 99.306,453.356 157.246,453.356" id="Fill-2"></path>
        </g>
    </g>
</svg>